<svg xmlns="http://www.w3.org/2000/svg" data-name="Layer 50" viewBox="0 0 64 80" x="0px" y="0px"><path d="m58.1,31.9L32.71,6.51c-.39-.39-1.02-.39-1.41,0L5.9,31.9c-.89.89-1.15,2.17-.66,3.34s1.57,1.89,2.83,1.89h3.69v15.54c0,2.83,2.3,5.12,5.12,5.12h7.9c.55,0,1-.45,1-1v-12.37c0-1.72,1.4-3.12,3.12-3.12h6.19c1.72,0,3.12,1.4,3.12,3.12v12.37c0,.55.45,1,1,1h7.9c2.83,0,5.12-2.3,5.12-5.12v-15.54h3.69c1.26,0,2.35-.72,2.83-1.89s.23-2.44-.66-3.34Zm-1.18,2.57c-.06.15-.32.66-.98.66h-4.69c-.55,0-1,.45-1,1v16.54c0,1.72-1.4,3.12-3.12,3.12h-6.9v-11.37c0-2.83-2.3-5.12-5.12-5.12h-6.19c-2.83,0-5.12,2.3-5.12,5.12v11.37h-6.9c-1.72,0-3.12-1.4-3.12-3.12v-16.54c0-.55-.45-1-1-1h-4.69c-.66,0-.92-.5-.98-.66-.06-.15-.24-.69.23-1.16l24.68-24.68,24.68,24.68c.47.47.29,1,.23,1.16Z"/></svg>