<svg xmlns="http://www.w3.org/2000/svg" xmlns:xlink="http://www.w3.org/1999/xlink" version="1.1" x="0px" y="0px" viewBox="0 0 98 122.5" style="enable-background:new 0 0 98 98;" xml:space="preserve"><title>30</title><g><path d="M49,12.4c-20.2,0-36.6,16.4-36.6,36.6c0,20.2,16.4,36.6,36.6,36.6c20.2,0,36.6-16.4,36.6-36.6C85.6,28.8,69.2,12.4,49,12.4   z M49,81.6C31,81.6,16.4,67,16.4,49S31,16.4,49,16.4S81.6,31,81.6,49S67,81.6,49,81.6z"/><polygon points="51,34.5 47,34.5 47,47 34.5,47 34.5,51 47,51 47,63.5 51,63.5 51,51 63.5,51 63.5,47 51,47  "/></g></svg>