<svg xmlns="http://www.w3.org/2000/svg" xmlns:xlink="http://www.w3.org/1999/xlink" version="1.1" x="0px" y="0px" viewBox="0 0 64 80" style="enable-background:new 0 0 64 64;" xml:space="preserve"><path d="M37.299,35.475l-6.144-3.547c-0.825-0.477-1.849-0.477-2.672-0.001c-0.824,0.476-1.336,1.362-1.336,2.314v7.095  c0,0.951,0.512,1.838,1.336,2.314c0.412,0.238,0.874,0.357,1.336,0.357c0.462,0,0.924-0.119,1.336-0.357l6.145-3.547  c0,0,0,0,0.001,0c0.823-0.476,1.335-1.362,1.335-2.314C38.636,36.837,38.123,35.951,37.299,35.475z M30.709,39.794v-4.01  l3.473,2.005L30.709,39.794z"/><path d="M53.375,20.422h-42.75c-2.947,0-5.344,2.397-5.344,5.344v24.047c0,2.947,2.397,5.344,5.344,5.344h42.75  c2.947,0,5.344-2.397,5.344-5.344V25.766C58.719,22.819,56.322,20.422,53.375,20.422z M55.156,49.813  c0,0.982-0.799,1.781-1.781,1.781h-42.75c-0.982,0-1.781-0.799-1.781-1.781V25.766c0-0.982,0.799-1.781,1.781-1.781h42.75  c0.982,0,1.781,0.799,1.781,1.781V49.813z"/><path d="M13.297,18.195h37.406c0.984,0,1.781-0.798,1.781-1.781c0-0.983-0.798-1.781-1.781-1.781H13.297  c-0.984,0-1.781,0.798-1.781,1.781C11.516,17.397,12.313,18.195,13.297,18.195z"/><path d="M19.531,12.406h24.938c0.984,0,1.781-0.798,1.781-1.781s-0.798-1.781-1.781-1.781H19.531c-0.984,0-1.781,0.798-1.781,1.781  S18.548,12.406,19.531,12.406z"/></svg>