<svg xmlns="http://www.w3.org/2000/svg" xmlns:xlink="http://www.w3.org/1999/xlink" version="1.1" x="0px" y="0px" viewBox="0 0 98 122.5" style="enable-background:new 0 0 98 98;" xml:space="preserve"><path d="M94.2,82.564l-6.413-62.462V9.434c0-0.543-0.44-0.983-0.983-0.983H11.196c-0.543,0-0.983,0.44-0.983,0.983v10.668  L3.8,82.564c-0.044,0.432,0.2,0.842,0.602,1.008c10.277,4.252,22.08,5.977,30.611,5.977c1.813,0,3.479-0.078,4.95-0.226  c0.367-0.037,0.682-0.276,0.817-0.62l8.221-21l8.221,21c0.134,0.343,0.45,0.583,0.817,0.62c8.392,0.845,23.1-0.594,35.561-5.75  C94,83.406,94.244,82.996,94.2,82.564z M88.29,44.243c-9.785-3.191-15.361-10.396-17.928-23.108h15.555L88.29,44.243z   M12.179,10.417h73.642v8.752H12.179V10.417z M12.083,21.134h15.588c-2.57,12.727-8.156,19.935-17.962,23.12L12.083,21.134z   M58.83,87.422l-8.915-22.773c-0.147-0.377-0.511-0.625-0.915-0.625s-0.768,0.248-0.915,0.625L39.17,87.422  c-8.327,0.7-22.12-0.908-33.34-5.391l3.661-35.652c5.624-1.668,9.974-4.496,13.274-8.638c3.268-4.103,5.529-9.54,6.911-16.606  h38.682C69.74,28.201,72,33.638,75.268,37.741c3.293,4.134,7.632,6.959,13.239,8.628l3.662,35.662  C80.949,86.514,67.156,88.122,58.83,87.422z"/><text x="0" y="113" fill="#000000" font-size="5px" font-weight="bold" font-family="'Helvetica Neue', Helvetica, Arial-Unicode, Arial, Sans-serif">Created by abdul gofur</text><text x="0" y="118" fill="#000000" font-size="5px" font-weight="bold" font-family="'Helvetica Neue', Helvetica, Arial-Unicode, Arial, Sans-serif">from the Noun Project</text></svg>